Coordinates
version=1
nRows=28
nColumns=38
inDegrees=no

Units are S.I. units (second, meters, Newtons, ...)
If the header above contains a line with 'inDegrees', this indicates whether rotational values are in degrees (yes) or radians (no).

endheader
time	pelvis_tilt	pelvis_list	pelvis_rotation	pelvis_tx	pelvis_ty	pelvis_tz	hip_flexion_r	hip_adduction_r	hip_rotation_r	knee_angle_r	ankle_angle_r	subtalar_angle_r	mtp_angle_r	hip_flexion_l	hip_adduction_l	hip_rotation_l	knee_angle_l	ankle_angle_l	subtalar_angle_l	mtp_angle_l	lumbar_extension	lumbar_bending	lumbar_rotation	arm_flex_r	arm_add_r	arm_rot_r	elbow_flex_r	pro_sup_r	wrist_flex_r	wrist_dev_r	arm_flex_l	arm_add_l	arm_rot_l	elbow_flex_l	pro_sup_l	wrist_flex_l	wrist_dev_l
4.12	-1.12602	1.37762	-0.815304	0.953936	-0.280253	0.956214	0.104035	-0.0692367	-0.52824	0.850755	0.125394	0	0	-0.245852	-0.159207	-0.313405	0	0.00875152	0	0	-0.132817	0.118951	-0.534219	-0.862957	-0.411978	0.245839	1.21214	1.5708	0	0	-0.342391	-0.284775	0.0444874	0.68273	1.14704	0	0
4.13	-1.1557	1.371	-0.794724	0.952652	-0.283288	0.956413	0.108977	-0.0616659	-0.537035	0.834566	0.125265	0	0	-0.254245	-0.165854	-0.32281	0	0.0122789	0	0	-0.134309	0.126519	-0.540379	-0.839819	-0.396354	0.252636	1.1569	1.5708	0	0	-0.347018	-0.27983	0.0442804	0.680088	1.15261	0	0
4.14	-1.18101	1.36418	-0.777055	0.951505	-0.286274	0.956553	0.112703	-0.0547484	-0.545906	0.817863	0.124354	0	0	-0.262682	-0.17239	-0.330805	0	0.0160509	0	0	-0.136261	0.134211	-0.547387	-0.815739	-0.378801	0.256832	1.09886	1.5708	0	0	-0.351597	-0.275067	0.0451452	0.67834	1.1585	0	0
4.15	-1.20341	1.35766	-0.762768	0.9503	-0.2893	0.956628	0.115951	-0.0495793	-0.555188	0.801719	0.125396	0	0	-0.271605	-0.177995	-0.338725	0	0.0192748	0	0	-0.137588	0.141912	-0.553285	-0.79194	-0.359458	0.256171	1.03847	1.5708	0	0	-0.356144	-0.269472	0.0472489	0.677171	1.16639	0	0
4.16	-1.23011	1.35212	-0.744439	0.949163	-0.291833	0.956507	0.122351	-0.0429798	-0.55868	0.785191	0.123831	0	0	-0.277538	-0.183954	-0.34823	0	0.0233874	0	0	-0.139003	0.149372	-0.557699	-0.766214	-0.338284	0.255751	0.97704	1.54706	0	0	-0.358688	-0.265697	0.0514196	0.675367	1.17661	0	0
4.17	-1.41397	1.39085	-0.640882	0.942297	-0.294149	0.952306	0.207633	-0.044474	-0.481015	0.797057	0.130325	0	0	-0.24775	-0.155601	-0.430126	0	0.026202	0	0	-0.0831381	0.140649	-0.493715	-0.75532	-0.329862	0.247341	0.919347	1.50061	0	0	-0.355944	-0.240626	0.0549189	0.644534	1.20074	0	0
4.18	-1.2172	1.36207	-0.838693	0.942537	-0.288723	0.955356	0.172485	-0.0454138	-0.476783	0.783155	0.131733	0	0	-0.294225	-0.153297	-0.425174	0	0.0260884	0	0	-0.15756	0.129906	-0.502546	-0.702372	-0.292846	0.260275	0.858364	1.48422	0	0	-0.361238	-0.267652	0.0535885	0.686895	1.2036	0	0
4.19	-1.45436	1.38148	-0.615128	0.939791	-0.299762	0.951839	0.215073	-0.0370621	-0.492869	0.760083	0.135342	0	0	-0.259833	-0.163093	-0.446093	0	0.0331855	0	0	-0.0825598	0.153619	-0.502734	-0.709665	-0.29139	0.236914	0.805487	1.42742	0	0	-0.361828	-0.230712	0.0658018	0.641598	1.22265	0	0
4.2	-1.47027	1.37718	-0.606014	0.938485	-0.30271	0.951614	0.217567	-0.0347565	-0.499124	0.740265	0.136385	0	0	-0.266206	-0.166113	-0.452567	0	0.0363573	0	0	-0.0818728	0.159911	-0.506565	-0.689612	-0.273443	0.230736	0.753113	1.39767	0	0	-0.36433	-0.225466	0.0723317	0.640229	1.23245	0	0
4.21	-1.48535	1.37322	-0.597191	0.93713	-0.305787	0.951364	0.219341	-0.0328866	-0.505093	0.719144	0.135907	0	0	-0.272363	-0.168876	-0.458484	0	0.0395637	0	0	-0.0808462	0.166122	-0.509826	-0.670158	-0.254988	0.221924	0.700852	1.35554	0	0	-0.366605	-0.220395	0.0803074	0.639537	1.24428	0	0
4.22	-1.51502	1.37252	-0.571352	0.935748	-0.308762	0.950861	0.225214	-0.0320212	-0.511518	0.697142	0.134703	0	0	-0.272425	-0.171393	-0.463762	0	0.0432092	0	0	-0.0780018	0.17151	-0.505396	-0.587163	-0.171368	-0.420066	0.481794	0	0	0	-0.362405	-0.219212	0.0962244	0.637691	1.26331	0	0
4.23	-1.52721	1.36766	-0.563339	0.934934	-0.311721	0.950373	0.225621	-0.0303206	-0.517397	0.674965	0.133773	0	0	-0.27842	-0.174711	-0.470176	0	0.0482383	0	0	-0.0753365	0.179035	-0.518937	-0.63304	-0.228738	0.23385	0.616909	1.09579	0	0	-0.369447	-0.210312	0.0939123	0.63822	1.27669	0	0
4.24	-1.54286	1.36492	-0.549236	0.934102	-0.314545	0.949907	0.227252	-0.029761	-0.52307	0.651199	0.132757	0	0	-0.281455	-0.17754	-0.471326	0	0.0524095	0	0	-0.074106	0.185596	-0.523189	-0.617113	-0.213334	0.220397	0.580479	1.06316	0	0	-0.369395	-0.207117	0.105484	0.639198	1.28364	0	0
4.25	-1.558	1.36178	-0.538363	0.933103	-0.317805	0.949271	0.228444	-0.0284563	-0.525059	0.627158	0.133395	0	0	-0.286026	-0.179529	-0.476019	0	0.0572917	0	0	-0.0769742	0.19674	-0.515517	-0.419191	-0.222685	-1.38455	0	0.0571071	0	0	-0.362829	-0.206448	0.12931	0.63944	1.30387	0	0
4.26	-1.58701	1.36322	-0.510992	0.931458	-0.32052	0.94871	0.233558	-0.0280021	-0.526652	0.600379	0.131448	0	0	-0.283885	-0.18094	-0.477115	0	0.0599456	0	0	-0.0672014	0.196446	-0.521236	-0.575964	-0.14857	0.0300834	0.469819	1.13611	0	0	-0.366237	-0.203629	0.13698	0.640584	1.31139	0	0
4.27	-1.6023	1.36091	-0.500381	0.930035	-0.323813	0.947857	0.23433	-0.0267363	-0.526334	0.575152	0.129956	0	0	-0.288295	-0.182272	-0.483802	0	0.0647725	0	0	-0.0682335	0.206249	-0.508645	-0.410185	-0.196361	-1.3548	0.00544052	0.221835	0	0	-0.358761	-0.204635	0.164632	0.644236	1.31224	0	0
4.28	-1.62369	1.36115	-0.482663	0.928532	-0.326818	0.947077	0.237193	-0.0264517	-0.525016	0.548237	0.126492	0	0	-0.289311	-0.182516	-0.487536	0	0.0684206	0	0	-0.0644259	0.211808	-0.504653	-0.404083	-0.197707	-1.41855	0	0.269392	0	0	-0.356249	-0.20352	0.182982	0.646605	1.31799	0	0
4.29	-1.64963	1.36747	-0.457104	0.926575	-0.329417	0.946121	0.246806	-0.0363582	-0.535642	0.53217	0.125318	0	0	-0.284766	-0.179401	-0.485424	0	0.0704828	0	0	-0.0524939	0.206018	-0.513674	-0.553105	-0.135405	0.0597149	0.443981	1.08392	0	0	-0.362995	-0.201667	0.185444	0.650704	1.33292	0	0
4.3	-1.67335	1.36619	-0.436616	0.925031	-0.332223	0.94555	0.245325	-0.0278179	-0.517406	0.49227	0.116357	0	0	-0.28577	-0.181552	-0.488493	0	0.0736	0	0	-0.0495846	0.212768	-0.508276	-0.549887	-0.137012	0.0858462	0.453422	1.06579	0	0	-0.359108	-0.200838	0.199386	0.6526	1.34278	0	0
4.31	-1.6938	1.36815	-0.418665	0.92325	-0.335058	0.944659	0.248301	-0.0286323	-0.510989	0.465702	0.110878	0	0	-0.285661	-0.180532	-0.489926	0	0.0766581	0	0	-0.0454249	0.215505	-0.502664	-0.549446	-0.138897	0.105826	0.46869	1.05521	0	0	-0.356268	-0.201257	0.212684	0.656376	1.35409	0	0
4.32	-1.71402	1.37035	-0.400206	0.921432	-0.337893	0.943747	0.250638	-0.0293282	-0.502793	0.438448	0.104587	0	0	-0.285264	-0.179439	-0.490774	0	0.0795917	0	0	-0.0413618	0.217918	-0.496493	-0.548455	-0.140767	0.122801	0.484879	1.04782	0	0	-0.352796	-0.201812	0.224365	0.660072	1.36745	0	0
4.33	-1.73166	1.37248	-0.383555	0.919589	-0.34069	0.94286	0.251451	-0.0296354	-0.492249	0.409811	0.0973655	0	0	-0.285146	-0.178326	-0.491193	0	0.0824269	0	0	-0.0381183	0.220131	-0.489809	-0.546282	-0.14234	0.135321	0.501567	1.04137	0	0	-0.34864	-0.202648	0.234075	0.663493	1.38238	0	0
4.34	-1.7456	1.37475	-0.369934	0.917784	-0.343464	0.941977	0.251339	-0.0305946	-0.480365	0.38186	0.0905269	0	0	-0.285573	-0.176899	-0.490693	0	0.0849373	0	0	-0.0356016	0.221831	-0.483212	-0.545666	-0.144895	0.146628	0.524317	1.0452	0	0	-0.344308	-0.203785	0.24285	0.666897	1.40036	0	0
4.35	-1.7599	1.37751	-0.3556	0.915943	-0.346284	0.941024	0.251583	-0.032529	-0.467929	0.356183	0.0862901	0	0	-0.285789	-0.175062	-0.489806	0	0.0874165	0	0	-0.0326505	0.223075	-0.476534	-0.545387	-0.147727	0.155281	0.548369	1.06142	0	0	-0.339793	-0.204157	0.247668	0.668888	1.42328	0	0
4.36	-1.77313	1.38071	-0.341888	0.914043	-0.349138	0.940019	0.251624	-0.0353786	-0.454704	0.332374	0.0846316	0	0	-0.28607	-0.172765	-0.488429	0	0.0900246	0	0	-0.0297039	0.223779	-0.469554	-0.543524	-0.149595	0.155597	0.570633	1.07793	0	0	-0.334839	-0.204224	0.250714	0.669693	1.4439	0	0
4.37	-1.79216	1.38572	-0.320663	0.911962	-0.351515	0.939014	0.252827	-0.039642	-0.439149	0.309829	0.0835337	0	0	-0.284077	-0.169934	-0.484517	0	0.0924906	0	0	-0.027837	0.222483	-0.455434	-0.437285	-0.100353	-0.626521	0.325306	0	0	0	-0.324691	-0.207856	0.259906	0.669765	1.46943	0	0
4.38	-1.80375	1.39007	-0.312503	0.910642	-0.353871	0.937435	0.25897	-0.0445142	-0.396434	0.302095	0.087897	0	0	-0.285202	-0.164449	-0.481509	0	0.0981977	0	0	-0.0294009	0.22634	-0.450821	-0.327229	-0.185377	-1.38561	0	0.0200755	0	0	-0.320594	-0.206952	0.262572	0.671469	1.48624	0	0
4.39	-1.79602	1.39187	-0.315181	0.908266	-0.357959	0.93661	0.247145	-0.04821	-0.410196	0.267843	0.0846139	0	0	-0.290178	-0.163646	-0.48286	0	0.0989705	0	0	-0.0282034	0.226488	-0.439711	-0.32538	-0.185861	-1.45683	0	0.0283066	0	0	-0.312815	-0.207724	0.269252	0.670682	1.49158	0	0
